{
	"asset":{
		"generator":"Khronos glTF Blender I/O v3.6.27",
		"version":"2.0"
	},
	"extensionsUsed":[
		"KHR_materials_specular",
		"KHR_materials_ior"
	],
	"scene":0,
	"scenes":[
		{
			"name":"Scene",
			"nodes":[
				0
			]
		}
	],
	"nodes":[
		{
			"mesh":0,
			"name":"Plane",
			"rotation":[
				0.7071068286895752,
				0,
				0,
				0.7071068286895752
			],
			"scale":[
				2,
				1,
				1
			],
			"translation":[
				-127.06290435791016,
				0,
				0
			]
		}
	],
	"materials":[
		{
			"doubleSided":true,
			"extensions":{
				"KHR_materials_specular":{
					"specularColorFactor":[
						0.8346319386519939,
						0.8346319386519939,
						0.8346319386519939
					]
				},
				"KHR_materials_ior":{
					"ior":1.4500000476837158
				}
			},
			"name":"Material.001",
			"pbrMetallicRoughness":{
				"baseColorFactor":[
					1,
					0.28391033411026,
					0.0009789466857910156,
					1
				],
				"metallicFactor":0
			}
		},
		{
			"doubleSided":true,
			"extensions":{
				"KHR_materials_specular":{
					"specularColorFactor":[
						0,
						0,
						0
					]
				},
				"KHR_materials_ior":{
					"ior":1.4500000476837158
				}
			},
			"name":"Material.002",
			"pbrMetallicRoughness":{
				"baseColorFactor":[
					0.36470896005630493,
					0.1321612447500229,
					0,
					1
				],
				"roughnessFactor":0.8444108963012695
			}
		}
	],
	"meshes":[
		{
			"name":"Plane",
			"primitives":[
				{
					"attributes":{
						"POSITION":0,
						"NORMAL":1,
						"TEXCOORD_0":2
					},
					"indices":3,
					"material":0
				},
				{
					"attributes":{
						"POSITION":4,
						"NORMAL":5,
						"TEXCOORD_0":6
					},
					"indices":7,
					"material":1
				}
			]
		}
	],
	"accessors":[
		{
			"bufferView":0,
			"componentType":5126,
			"count":9656,
			"max":[
				106.13885498046875,
				3.0015119278914426e-08,
				1.9913575649261475
			],
			"min":[
				19.799999237060547,
				-2.4172911643981934,
				-44.96484375
			],
			"type":"VEC3"
		},
		{
			"bufferView":1,
			"componentType":5126,
			"count":9656,
			"type":"VEC3"
		},
		{
			"bufferView":2,
			"componentType":5126,
			"count":9656,
			"type":"VEC2"
		},
		{
			"bufferView":3,
			"componentType":5123,
			"count":16092,
			"type":"SCALAR"
		},
		{
			"bufferView":4,
			"componentType":5126,
			"count":6624,
			"max":[
				101.94845581054688,
				3.0015119278914426e-08,
				1.9913575649261475
			],
			"min":[
				19.845603942871094,
				-2.4172911643981934,
				-44.96484375
			],
			"type":"VEC3"
		},
		{
			"bufferView":5,
			"componentType":5126,
			"count":6624,
			"type":"VEC3"
		},
		{
			"bufferView":6,
			"componentType":5126,
			"count":6624,
			"type":"VEC2"
		},
		{
			"bufferView":7,
			"componentType":5123,
			"count":11040,
			"type":"SCALAR"
		}
	],
	"bufferViews":[
		{
			"buffer":0,
			"byteLength":115872,
			"byteOffset":0,
			"target":34962
		},
		{
			"buffer":0,
			"byteLength":115872,
			"byteOffset":115872,
			"target":34962
		},
		{
			"buffer":0,
			"byteLength":77248,
			"byteOffset":231744,
			"target":34962
		},
		{
			"buffer":0,
			"byteLength":32184,
			"byteOffset":308992,
			"target":34963
		},
		{
			"buffer":0,
			"byteLength":79488,
			"byteOffset":341176,
			"target":34962
		},
		{
			"buffer":0,
			"byteLength":79488,
			"byteOffset":420664,
			"target":34962
		},
		{
			"buffer":0,
			"byteLength":52992,
			"byteOffset":500152,
			"target":34962
		},
		{
			"buffer":0,
			"byteLength":22080,
			"byteOffset":553144,
			"target":34963
		}
	],
	"buffers":[
		{
			"byteLength":575224,
			"uri":"hexagon.bin"
		}
	]
}
